<?xml version="1.0" encoding="UTF-8"?>
<!DOCTYPE svg PUBLIC "-//W3C//DTD SVG 1.1//EN" "http://www.w3.org/Graphics/SVG/1.1/DTD/svg11.dtd">
<svg version="1.2" width="135.73mm" height="135.73mm" viewBox="0 0 13573 13573" preserveAspectRatio="xMidYMid" fill-rule="evenodd" stroke-width="28.222" stroke-linejoin="round" xmlns="http://www.w3.org/2000/svg" xmlns:ooo="http://xml.openoffice.org/svg/export" xmlns:xlink="http://www.w3.org/1999/xlink" xmlns:presentation="http://sun.com/xmlns/staroffice/presentation" xmlns:smil="http://www.w3.org/2001/SMIL20/" xmlns:anim="urn:oasis:names:tc:opendocument:xmlns:animation:1.0" xml:space="preserve">
 <defs class="ClipPathGroup">
  <clipPath id="presentation_clip_path" clipPathUnits="userSpaceOnUse">
   <rect x="0" y="0" width="13573" height="13573"/>
  </clipPath>
  <clipPath id="presentation_clip_path_shrink" clipPathUnits="userSpaceOnUse">
   <rect x="13" y="13" width="13546" height="13546"/>
  </clipPath>
 </defs>
 <defs class="TextShapeIndex">
  <g ooo:slide="id1" ooo:id-list="id3"/>
 </defs>
 <defs class="EmbeddedBulletChars">
  <g id="bullet-char-template-57356" transform="scale(0.00048828125,-0.00048828125)">
   <path d="M 580,1141 L 1163,571 580,0 -4,571 580,1141 Z"/>
  </g>
  <g id="bullet-char-template-57354" transform="scale(0.00048828125,-0.00048828125)">
   <path d="M 8,1128 L 1137,1128 1137,0 8,0 8,1128 Z"/>
  </g>
  <g id="bullet-char-template-10146" transform="scale(0.00048828125,-0.00048828125)">
   <path d="M 174,0 L 602,739 174,1481 1456,739 174,0 Z M 1358,739 L 309,1346 659,739 1358,739 Z"/>
  </g>
  <g id="bullet-char-template-10132" transform="scale(0.00048828125,-0.00048828125)">
   <path d="M 2015,739 L 1276,0 717,0 1260,543 174,543 174,936 1260,936 717,1481 1274,1481 2015,739 Z"/>
  </g>
  <g id="bullet-char-template-10007" transform="scale(0.00048828125,-0.00048828125)">
   <path d="M 0,-2 C -7,14 -16,27 -25,37 L 356,567 C 262,823 215,952 215,954 215,979 228,992 255,992 264,992 276,990 289,987 310,991 331,999 354,1012 L 381,999 492,748 772,1049 836,1024 860,1049 C 881,1039 901,1025 922,1006 886,937 835,863 770,784 769,783 710,716 594,584 L 774,223 C 774,196 753,168 711,139 L 727,119 C 717,90 699,76 672,76 641,76 570,178 457,381 L 164,-76 C 142,-110 111,-127 72,-127 30,-127 9,-110 8,-76 1,-67 -2,-52 -2,-32 -2,-23 -1,-13 0,-2 Z"/>
  </g>
  <g id="bullet-char-template-10004" transform="scale(0.00048828125,-0.00048828125)">
   <path d="M 285,-33 C 182,-33 111,30 74,156 52,228 41,333 41,471 41,549 55,616 82,672 116,743 169,778 240,778 293,778 328,747 346,684 L 369,508 C 377,444 397,411 428,410 L 1163,1116 C 1174,1127 1196,1133 1229,1133 1271,1133 1292,1118 1292,1087 L 1292,965 C 1292,929 1282,901 1262,881 L 442,47 C 390,-6 338,-33 285,-33 Z"/>
  </g>
  <g id="bullet-char-template-9679" transform="scale(0.00048828125,-0.00048828125)">
   <path d="M 813,0 C 632,0 489,54 383,161 276,268 223,411 223,592 223,773 276,916 383,1023 489,1130 632,1184 813,1184 992,1184 1136,1130 1245,1023 1353,916 1407,772 1407,592 1407,412 1353,268 1245,161 1136,54 992,0 813,0 Z"/>
  </g>
  <g id="bullet-char-template-8226" transform="scale(0.00048828125,-0.00048828125)">
   <path d="M 346,457 C 273,457 209,483 155,535 101,586 74,649 74,723 74,796 101,859 155,911 209,963 273,989 346,989 419,989 480,963 531,910 582,859 608,796 608,723 608,648 583,586 532,535 482,483 420,457 346,457 Z"/>
  </g>
  <g id="bullet-char-template-8211" transform="scale(0.00048828125,-0.00048828125)">
   <path d="M -4,459 L 1135,459 1135,606 -4,606 -4,459 Z"/>
  </g>
  <g id="bullet-char-template-61548" transform="scale(0.00048828125,-0.00048828125)">
   <path d="M 173,740 C 173,903 231,1043 346,1159 462,1274 601,1332 765,1332 928,1332 1067,1274 1183,1159 1299,1043 1357,903 1357,740 1357,577 1299,437 1183,322 1067,206 928,148 765,148 601,148 462,206 346,322 231,437 173,577 173,740 Z"/>
  </g>
 </defs>
 <g>
  <g id="id2" class="Master_Slide">
   <g id="bg-id2" class="Background"/>
   <g id="bo-id2" class="BackgroundObjects"/>
  </g>
 </g>
 <g class="SlideGroup">
  <g>
   <g id="container-id1">
    <g id="id1" class="Slide" clip-path="url(#presentation_clip_path)">
     <g class="Page">
      <g class="Graphic">
       <g id="id3">
        <rect class="BoundingBox" stroke="none" fill="none" x="0" y="0" width="13573" height="13573"/>
        <path fill="rgb(26,92,81)" stroke="rgb(26,92,81)" d="M 10172,1142 L 10172,578 C 10172,479 10146,381 10097,295 10047,210 9976,138 9890,89 9804,39 9707,13 9608,13 9509,13 9412,39 9326,89 9240,138 9169,210 9119,295 9070,381 9044,479 9044,578 L 9044,1142 4528,1142 4528,578 C 4528,479 4502,381 4453,295 4403,210 4332,138 4246,89 4160,39 4063,13 3964,13 3865,13 3768,39 3682,89 3596,138 3525,210 3475,295 3426,381 3400,479 3400,578 L 3400,1142 2835,1142 C 2340,1143 1854,1273 1426,1521 996,1769 640,2125 392,2555 144,2983 14,3469 13,3964 L 13,10737 C 14,11232 144,11718 392,12146 640,12576 996,12932 1426,13180 1854,13428 2340,13558 2835,13559 L 10737,13559 C 11232,13558 11718,13428 12146,13180 12576,12932 12932,12576 13180,12146 13428,11718 13558,11232 13559,10737 L 13559,3964 C 13558,3469 13428,2983 13180,2555 12932,2125 12576,1769 12146,1521 11718,1273 11232,1143 10737,1142 L 10172,1142 Z M 1142,3964 C 1142,3667 1220,3375 1369,3117 1517,2860 1731,2646 1989,2498 2246,2349 2538,2271 2835,2271 L 10737,2271 C 11034,2271 11326,2349 11583,2498 11841,2646 12055,2860 12203,3117 12352,3375 12430,3667 12430,3964 L 12430,4528 1142,4528 1142,3964 Z M 10737,12430 L 2835,12430 C 2538,12430 2246,12352 1989,12203 1731,12055 1517,11841 1369,11583 1220,11326 1142,11034 1142,10737 L 1142,5657 12430,5657 12430,10737 C 12430,11034 12352,11326 12203,11583 12055,11841 11841,12055 11583,12203 11326,12352 11034,12430 10737,12430 Z"/>
        <path fill="rgb(26,92,81)" stroke="rgb(26,92,81)" d="M 7633,8479 C 7633,8628 7593,8774 7519,8902 7445,9031 7338,9138 7209,9212 7081,9287 6935,9326 6786,9326 6637,9326 6491,9287 6363,9212 6234,9138 6127,9031 6053,8902 5979,8774 5939,8628 5939,8479 5939,8331 5979,8185 6053,8056 6127,7927 6234,7820 6363,7746 6491,7672 6637,7633 6786,7633 6935,7633 7081,7672 7209,7746 7338,7820 7445,7927 7519,8056 7593,8185 7633,8331 7633,8479 L 7633,8479 Z"/>
        <path fill="rgb(26,92,81)" stroke="rgb(26,92,81)" d="M 4811,8479 C 4811,8628 4771,8774 4697,8902 4623,9031 4516,9138 4387,9212 4259,9287 4113,9326 3964,9326 3815,9326 3669,9287 3541,9212 3412,9138 3305,9031 3231,8902 3157,8774 3117,8628 3117,8479 3117,8331 3157,8185 3231,8056 3305,7927 3412,7820 3541,7746 3669,7672 3815,7633 3964,7633 4113,7633 4259,7672 4387,7746 4516,7820 4623,7927 4697,8056 4771,8185 4811,8331 4811,8479 L 4811,8479 Z"/>
        <path fill="rgb(26,92,81)" stroke="rgb(26,92,81)" d="M 10455,8479 C 10455,8628 10415,8774 10341,8902 10267,9031 10160,9138 10031,9212 9903,9287 9757,9326 9608,9326 9459,9326 9313,9287 9185,9212 9056,9138 8949,9031 8875,8902 8801,8774 8761,8628 8761,8479 8761,8331 8801,8185 8875,8056 8949,7927 9056,7820 9185,7746 9313,7672 9459,7633 9608,7633 9757,7633 9903,7672 10031,7746 10160,7820 10267,7927 10341,8056 10415,8185 10455,8331 10455,8479 L 10455,8479 Z"/>
       </g>
      </g>
     </g>
    </g>
   </g>
  </g>
 </g>
</svg>