<?xml version="1.0" encoding="UTF-8"?>
<!DOCTYPE svg PUBLIC "-//W3C//DTD SVG 1.1//EN" "http://www.w3.org/Graphics/SVG/1.1/DTD/svg11.dtd">
<svg version="1.2" width="135.73mm" height="135.73mm" viewBox="0 0 13573 13573" preserveAspectRatio="xMidYMid" fill-rule="evenodd" stroke-width="28.222" stroke-linejoin="round" xmlns="http://www.w3.org/2000/svg" xmlns:ooo="http://xml.openoffice.org/svg/export" xmlns:xlink="http://www.w3.org/1999/xlink" xmlns:presentation="http://sun.com/xmlns/staroffice/presentation" xmlns:smil="http://www.w3.org/2001/SMIL20/" xmlns:anim="urn:oasis:names:tc:opendocument:xmlns:animation:1.0" xml:space="preserve">
 <defs class="ClipPathGroup">
  <clipPath id="presentation_clip_path" clipPathUnits="userSpaceOnUse">
   <rect x="0" y="0" width="13573" height="13573"/>
  </clipPath>
  <clipPath id="presentation_clip_path_shrink" clipPathUnits="userSpaceOnUse">
   <rect x="13" y="13" width="13546" height="13546"/>
  </clipPath>
 </defs>
 <defs class="TextShapeIndex">
  <g ooo:slide="id1" ooo:id-list="id3"/>
 </defs>
 <defs class="EmbeddedBulletChars">
  <g id="bullet-char-template-57356" transform="scale(0.00048828125,-0.00048828125)">
   <path d="M 580,1141 L 1163,571 580,0 -4,571 580,1141 Z"/>
  </g>
  <g id="bullet-char-template-57354" transform="scale(0.00048828125,-0.00048828125)">
   <path d="M 8,1128 L 1137,1128 1137,0 8,0 8,1128 Z"/>
  </g>
  <g id="bullet-char-template-10146" transform="scale(0.00048828125,-0.00048828125)">
   <path d="M 174,0 L 602,739 174,1481 1456,739 174,0 Z M 1358,739 L 309,1346 659,739 1358,739 Z"/>
  </g>
  <g id="bullet-char-template-10132" transform="scale(0.00048828125,-0.00048828125)">
   <path d="M 2015,739 L 1276,0 717,0 1260,543 174,543 174,936 1260,936 717,1481 1274,1481 2015,739 Z"/>
  </g>
  <g id="bullet-char-template-10007" transform="scale(0.00048828125,-0.00048828125)">
   <path d="M 0,-2 C -7,14 -16,27 -25,37 L 356,567 C 262,823 215,952 215,954 215,979 228,992 255,992 264,992 276,990 289,987 310,991 331,999 354,1012 L 381,999 492,748 772,1049 836,1024 860,1049 C 881,1039 901,1025 922,1006 886,937 835,863 770,784 769,783 710,716 594,584 L 774,223 C 774,196 753,168 711,139 L 727,119 C 717,90 699,76 672,76 641,76 570,178 457,381 L 164,-76 C 142,-110 111,-127 72,-127 30,-127 9,-110 8,-76 1,-67 -2,-52 -2,-32 -2,-23 -1,-13 0,-2 Z"/>
  </g>
  <g id="bullet-char-template-10004" transform="scale(0.00048828125,-0.00048828125)">
   <path d="M 285,-33 C 182,-33 111,30 74,156 52,228 41,333 41,471 41,549 55,616 82,672 116,743 169,778 240,778 293,778 328,747 346,684 L 369,508 C 377,444 397,411 428,410 L 1163,1116 C 1174,1127 1196,1133 1229,1133 1271,1133 1292,1118 1292,1087 L 1292,965 C 1292,929 1282,901 1262,881 L 442,47 C 390,-6 338,-33 285,-33 Z"/>
  </g>
  <g id="bullet-char-template-9679" transform="scale(0.00048828125,-0.00048828125)">
   <path d="M 813,0 C 632,0 489,54 383,161 276,268 223,411 223,592 223,773 276,916 383,1023 489,1130 632,1184 813,1184 992,1184 1136,1130 1245,1023 1353,916 1407,772 1407,592 1407,412 1353,268 1245,161 1136,54 992,0 813,0 Z"/>
  </g>
  <g id="bullet-char-template-8226" transform="scale(0.00048828125,-0.00048828125)">
   <path d="M 346,457 C 273,457 209,483 155,535 101,586 74,649 74,723 74,796 101,859 155,911 209,963 273,989 346,989 419,989 480,963 531,910 582,859 608,796 608,723 608,648 583,586 532,535 482,483 420,457 346,457 Z"/>
  </g>
  <g id="bullet-char-template-8211" transform="scale(0.00048828125,-0.00048828125)">
   <path d="M -4,459 L 1135,459 1135,606 -4,606 -4,459 Z"/>
  </g>
  <g id="bullet-char-template-61548" transform="scale(0.00048828125,-0.00048828125)">
   <path d="M 173,740 C 173,903 231,1043 346,1159 462,1274 601,1332 765,1332 928,1332 1067,1274 1183,1159 1299,1043 1357,903 1357,740 1357,577 1299,437 1183,322 1067,206 928,148 765,148 601,148 462,206 346,322 231,437 173,577 173,740 Z"/>
  </g>
 </defs>
 <g>
  <g id="id2" class="Master_Slide">
   <g id="bg-id2" class="Background"/>
   <g id="bo-id2" class="BackgroundObjects"/>
  </g>
 </g>
 <g class="SlideGroup">
  <g>
   <g id="container-id1">
    <g id="id1" class="Slide" clip-path="url(#presentation_clip_path)">
     <g class="Page">
      <g class="Graphic">
       <g id="id3">
        <rect class="BoundingBox" stroke="none" fill="none" x="0" y="0" width="13573" height="13573"/>
        <path fill="rgb(196,229,212)" stroke="rgb(196,229,212)" d="M 674,5190 L 2863,3001 C 2897,2969 2933,2941 2973,2918 3059,2868 3156,2842 3256,2842 3355,2842 3452,2868 3538,2918 3624,2967 3695,3039 3744,3124 3794,3210 3820,3307 3820,3407 3820,3506 3794,3603 3744,3689 3721,3729 3693,3766 3661,3799 L 1472,5988 C 1407,6054 1350,6128 1303,6208 1311,6208 1318,6204 1327,6204 L 10179,6222 C 10278,6222 10375,6248 10461,6297 10547,6347 10618,6418 10667,6504 10717,6590 10743,6687 10743,6786 10743,6885 10717,6982 10667,7068 10618,7154 10547,7225 10461,7275 10375,7324 10278,7350 10179,7350 L 1330,7332 C 1314,7332 1301,7324 1286,7323 1293,7337 1300,7350 1308,7363 1354,7444 1410,7518 1474,7584 L 3664,9773 C 3702,9810 3734,9852 3760,9897 3810,9983 3836,10080 3836,10179 3836,10278 3810,10376 3760,10462 3711,10547 3640,10619 3554,10668 3468,10718 3371,10744 3272,10744 3173,10744 3075,10718 2989,10668 2944,10642 2902,10609 2866,10571 L 676,8382 C 537,8243 416,8086 318,7915 120,7572 15,7182 15,6786 15,6390 120,6000 318,5657 416,5486 537,5329 676,5190 L 674,5190 Z"/>
        <path fill="rgb(196,229,212)" stroke="rgb(196,229,212)" d="M 9608,12430 L 10737,12430 10737,12430 C 11034,12430 11326,12352 11583,12203 11841,12055 12055,11841 12203,11583 12352,11326 12430,11034 12430,10737 L 12430,2835 12430,2835 C 12430,2538 12352,2246 12203,1989 12055,1731 11841,1517 11583,1369 11326,1220 11034,1142 10737,1142 L 9608,1142 9608,1142 C 9509,1142 9412,1116 9326,1066 9240,1017 9169,946 9119,860 9070,774 9044,677 9044,578 9044,479 9070,381 9119,295 9169,210 9240,138 9326,89 9412,39 9509,13 9608,13 L 10737,13 10737,13 C 11232,14 11718,144 12146,392 12576,640 12932,996 13180,1426 13428,1854 13558,2340 13559,2835 L 13559,10737 13559,10737 C 13558,11232 13428,11718 13180,12146 12932,12576 12576,12932 12146,13180 11718,13428 11232,13558 10737,13559 L 9608,13559 9608,13559 C 9509,13559 9412,13533 9326,13483 9240,13434 9169,13362 9119,13277 9070,13191 9044,13093 9044,12994 9044,12895 9070,12798 9119,12712 9169,12626 9240,12555 9326,12506 9412,12456 9509,12430 9608,12430 L 9608,12430 Z"/>
       </g>
      </g>
     </g>
    </g>
   </g>
  </g>
 </g>
</svg>