<?xml version="1.0" encoding="UTF-8"?>
<!DOCTYPE svg PUBLIC "-//W3C//DTD SVG 1.1//EN" "http://www.w3.org/Graphics/SVG/1.1/DTD/svg11.dtd">
<svg version="1.2" width="135.38mm" height="135.38mm" viewBox="0 0 13538 13538" preserveAspectRatio="xMidYMid" fill-rule="evenodd" stroke-width="28.222" stroke-linejoin="round" xmlns="http://www.w3.org/2000/svg" xmlns:ooo="http://xml.openoffice.org/svg/export" xmlns:xlink="http://www.w3.org/1999/xlink" xmlns:presentation="http://sun.com/xmlns/staroffice/presentation" xmlns:smil="http://www.w3.org/2001/SMIL20/" xmlns:anim="urn:oasis:names:tc:opendocument:xmlns:animation:1.0" xml:space="preserve">
 <defs class="ClipPathGroup">
  <clipPath id="presentation_clip_path" clipPathUnits="userSpaceOnUse">
   <rect x="0" y="0" width="13538" height="13538"/>
  </clipPath>
  <clipPath id="presentation_clip_path_shrink" clipPathUnits="userSpaceOnUse">
   <rect x="13" y="13" width="13511" height="13511"/>
  </clipPath>
 </defs>
 <defs class="TextShapeIndex">
  <g ooo:slide="id1" ooo:id-list="id3"/>
 </defs>
 <defs class="EmbeddedBulletChars">
  <g id="bullet-char-template-57356" transform="scale(0.00048828125,-0.00048828125)">
   <path d="M 580,1141 L 1163,571 580,0 -4,571 580,1141 Z"/>
  </g>
  <g id="bullet-char-template-57354" transform="scale(0.00048828125,-0.00048828125)">
   <path d="M 8,1128 L 1137,1128 1137,0 8,0 8,1128 Z"/>
  </g>
  <g id="bullet-char-template-10146" transform="scale(0.00048828125,-0.00048828125)">
   <path d="M 174,0 L 602,739 174,1481 1456,739 174,0 Z M 1358,739 L 309,1346 659,739 1358,739 Z"/>
  </g>
  <g id="bullet-char-template-10132" transform="scale(0.00048828125,-0.00048828125)">
   <path d="M 2015,739 L 1276,0 717,0 1260,543 174,543 174,936 1260,936 717,1481 1274,1481 2015,739 Z"/>
  </g>
  <g id="bullet-char-template-10007" transform="scale(0.00048828125,-0.00048828125)">
   <path d="M 0,-2 C -7,14 -16,27 -25,37 L 356,567 C 262,823 215,952 215,954 215,979 228,992 255,992 264,992 276,990 289,987 310,991 331,999 354,1012 L 381,999 492,748 772,1049 836,1024 860,1049 C 881,1039 901,1025 922,1006 886,937 835,863 770,784 769,783 710,716 594,584 L 774,223 C 774,196 753,168 711,139 L 727,119 C 717,90 699,76 672,76 641,76 570,178 457,381 L 164,-76 C 142,-110 111,-127 72,-127 30,-127 9,-110 8,-76 1,-67 -2,-52 -2,-32 -2,-23 -1,-13 0,-2 Z"/>
  </g>
  <g id="bullet-char-template-10004" transform="scale(0.00048828125,-0.00048828125)">
   <path d="M 285,-33 C 182,-33 111,30 74,156 52,228 41,333 41,471 41,549 55,616 82,672 116,743 169,778 240,778 293,778 328,747 346,684 L 369,508 C 377,444 397,411 428,410 L 1163,1116 C 1174,1127 1196,1133 1229,1133 1271,1133 1292,1118 1292,1087 L 1292,965 C 1292,929 1282,901 1262,881 L 442,47 C 390,-6 338,-33 285,-33 Z"/>
  </g>
  <g id="bullet-char-template-9679" transform="scale(0.00048828125,-0.00048828125)">
   <path d="M 813,0 C 632,0 489,54 383,161 276,268 223,411 223,592 223,773 276,916 383,1023 489,1130 632,1184 813,1184 992,1184 1136,1130 1245,1023 1353,916 1407,772 1407,592 1407,412 1353,268 1245,161 1136,54 992,0 813,0 Z"/>
  </g>
  <g id="bullet-char-template-8226" transform="scale(0.00048828125,-0.00048828125)">
   <path d="M 346,457 C 273,457 209,483 155,535 101,586 74,649 74,723 74,796 101,859 155,911 209,963 273,989 346,989 419,989 480,963 531,910 582,859 608,796 608,723 608,648 583,586 532,535 482,483 420,457 346,457 Z"/>
  </g>
  <g id="bullet-char-template-8211" transform="scale(0.00048828125,-0.00048828125)">
   <path d="M -4,459 L 1135,459 1135,606 -4,606 -4,459 Z"/>
  </g>
  <g id="bullet-char-template-61548" transform="scale(0.00048828125,-0.00048828125)">
   <path d="M 173,740 C 173,903 231,1043 346,1159 462,1274 601,1332 765,1332 928,1332 1067,1274 1183,1159 1299,1043 1357,903 1357,740 1357,577 1299,437 1183,322 1067,206 928,148 765,148 601,148 462,206 346,322 231,437 173,577 173,740 Z"/>
  </g>
 </defs>
 <g>
  <g id="id2" class="Master_Slide">
   <g id="bg-id2" class="Background"/>
   <g id="bo-id2" class="BackgroundObjects"/>
  </g>
 </g>
 <g class="SlideGroup">
  <g>
   <g id="container-id1">
    <g id="id1" class="Slide" clip-path="url(#presentation_clip_path)">
     <g class="Page">
      <g class="Graphic">
       <g id="id3">
        <rect class="BoundingBox" stroke="none" fill="none" x="0" y="0" width="13539" height="13539"/>
        <defs>
         <clipPath id="clip_path_1" clipPathUnits="userSpaceOnUse">
          <path d="M 0,0 L 13538,0 13538,13538 0,13538 0,0 Z"/>
         </clipPath>
        </defs>
        <g clip-path="url(#clip_path_1)">
         <path fill="rgb(229,169,119)" stroke="rgb(229,169,119)" d="M 2260,6603 C 2210,7973 2775,9273 3811,10172 4257,10559 4513,11155 4513,11846 4513,12779 5272,13538 6205,13538 L 7333,13538 C 8266,13538 9025,12779 9025,11846 L 9025,11634 C 9025,11089 9282,10564 9748,10153 10723,9297 11282,8064 11282,6769 11282,5550 10803,4407 9934,3552 9064,2697 7912,2229 6692,2257 4332,2296 2344,4246 2260,6603 Z M 7897,11846 C 7897,12157 7644,12410 7333,12410 L 6205,12410 C 5894,12410 5641,12157 5641,11807 5641,11629 5623,11454 5597,11282 L 7920,11282 C 7906,11398 7897,11516 7897,11634 L 7897,11846 Z M 9004,9306 C 8716,9559 8483,9846 8304,10153 L 7333,10153 7333,7793 C 7988,7560 8461,6939 8461,6205 8461,5893 8209,5641 7897,5641 7585,5641 7333,5893 7333,6205 7333,6517 7080,6769 6769,6769 6458,6769 6205,6516 6205,6205 6205,5894 5953,5641 5641,5641 5329,5641 5077,5893 5077,6205 5077,6939 5550,7560 6205,7793 L 6205,10153 5220,10153 C 5045,9839 4821,9556 4550,9320 3774,8646 3350,7670 3387,6644 3450,4876 4941,3414 6711,3385 L 6769,3385 C 7664,3385 8505,3729 9143,4357 9795,4998 10154,5855 10154,6770 10154,7740 9735,8664 9004,9306 L 9004,9306 Z M 9468,1396 L 10165,262 C 10327,-5 10675,-87 10940,77 11206,240 11289,587 11125,852 L 10429,1986 C 10323,2160 10137,2255 9948,2255 9847,2255 9745,2228 9653,2172 9387,2009 9305,1662 9468,1396 L 9468,1396 Z M 13207,3735 L 12117,4227 C 12041,4262 11963,4277 11885,4277 11670,4277 11465,4154 11371,3945 11242,3661 11369,3327 11653,3199 L 12743,2708 C 13029,2578 13361,2706 13489,2990 13618,3273 13491,3608 13207,3735 Z M 2366,852 C 2203,586 2286,239 2552,76 2819,-86 3165,-3 3328,262 L 4022,1397 C 4185,1662 4102,2010 3836,2172 3744,2229 3642,2255 3542,2255 3352,2255 3167,2159 3061,1986 L 2366,851 2366,852 Z M 2093,3983 C 1997,4185 1795,4303 1585,4303 1503,4303 1420,4286 1341,4248 L 327,3762 C 46,3628 -73,3291 62,3010 196,2728 534,2608 814,2745 L 1828,3231 C 2109,3365 2228,3702 2093,3982 L 2093,3983 Z"/>
        </g>
       </g>
      </g>
     </g>
    </g>
   </g>
  </g>
 </g>
</svg>