<?xml version="1.0" encoding="UTF-8"?>
<!DOCTYPE svg PUBLIC "-//W3C//DTD SVG 1.1//EN" "http://www.w3.org/Graphics/SVG/1.1/DTD/svg11.dtd">
<svg version="1.2" width="135.73mm" height="135.73mm" viewBox="0 0 13573 13573" preserveAspectRatio="xMidYMid" fill-rule="evenodd" stroke-width="28.222" stroke-linejoin="round" xmlns="http://www.w3.org/2000/svg" xmlns:ooo="http://xml.openoffice.org/svg/export" xmlns:xlink="http://www.w3.org/1999/xlink" xmlns:presentation="http://sun.com/xmlns/staroffice/presentation" xmlns:smil="http://www.w3.org/2001/SMIL20/" xmlns:anim="urn:oasis:names:tc:opendocument:xmlns:animation:1.0" xml:space="preserve">
 <defs class="ClipPathGroup">
  <clipPath id="presentation_clip_path" clipPathUnits="userSpaceOnUse">
   <rect x="0" y="0" width="13573" height="13573"/>
  </clipPath>
  <clipPath id="presentation_clip_path_shrink" clipPathUnits="userSpaceOnUse">
   <rect x="13" y="13" width="13546" height="13546"/>
  </clipPath>
 </defs>
 <defs class="TextShapeIndex">
  <g ooo:slide="id1" ooo:id-list="id3"/>
 </defs>
 <defs class="EmbeddedBulletChars">
  <g id="bullet-char-template-57356" transform="scale(0.00048828125,-0.00048828125)">
   <path d="M 580,1141 L 1163,571 580,0 -4,571 580,1141 Z"/>
  </g>
  <g id="bullet-char-template-57354" transform="scale(0.00048828125,-0.00048828125)">
   <path d="M 8,1128 L 1137,1128 1137,0 8,0 8,1128 Z"/>
  </g>
  <g id="bullet-char-template-10146" transform="scale(0.00048828125,-0.00048828125)">
   <path d="M 174,0 L 602,739 174,1481 1456,739 174,0 Z M 1358,739 L 309,1346 659,739 1358,739 Z"/>
  </g>
  <g id="bullet-char-template-10132" transform="scale(0.00048828125,-0.00048828125)">
   <path d="M 2015,739 L 1276,0 717,0 1260,543 174,543 174,936 1260,936 717,1481 1274,1481 2015,739 Z"/>
  </g>
  <g id="bullet-char-template-10007" transform="scale(0.00048828125,-0.00048828125)">
   <path d="M 0,-2 C -7,14 -16,27 -25,37 L 356,567 C 262,823 215,952 215,954 215,979 228,992 255,992 264,992 276,990 289,987 310,991 331,999 354,1012 L 381,999 492,748 772,1049 836,1024 860,1049 C 881,1039 901,1025 922,1006 886,937 835,863 770,784 769,783 710,716 594,584 L 774,223 C 774,196 753,168 711,139 L 727,119 C 717,90 699,76 672,76 641,76 570,178 457,381 L 164,-76 C 142,-110 111,-127 72,-127 30,-127 9,-110 8,-76 1,-67 -2,-52 -2,-32 -2,-23 -1,-13 0,-2 Z"/>
  </g>
  <g id="bullet-char-template-10004" transform="scale(0.00048828125,-0.00048828125)">
   <path d="M 285,-33 C 182,-33 111,30 74,156 52,228 41,333 41,471 41,549 55,616 82,672 116,743 169,778 240,778 293,778 328,747 346,684 L 369,508 C 377,444 397,411 428,410 L 1163,1116 C 1174,1127 1196,1133 1229,1133 1271,1133 1292,1118 1292,1087 L 1292,965 C 1292,929 1282,901 1262,881 L 442,47 C 390,-6 338,-33 285,-33 Z"/>
  </g>
  <g id="bullet-char-template-9679" transform="scale(0.00048828125,-0.00048828125)">
   <path d="M 813,0 C 632,0 489,54 383,161 276,268 223,411 223,592 223,773 276,916 383,1023 489,1130 632,1184 813,1184 992,1184 1136,1130 1245,1023 1353,916 1407,772 1407,592 1407,412 1353,268 1245,161 1136,54 992,0 813,0 Z"/>
  </g>
  <g id="bullet-char-template-8226" transform="scale(0.00048828125,-0.00048828125)">
   <path d="M 346,457 C 273,457 209,483 155,535 101,586 74,649 74,723 74,796 101,859 155,911 209,963 273,989 346,989 419,989 480,963 531,910 582,859 608,796 608,723 608,648 583,586 532,535 482,483 420,457 346,457 Z"/>
  </g>
  <g id="bullet-char-template-8211" transform="scale(0.00048828125,-0.00048828125)">
   <path d="M -4,459 L 1135,459 1135,606 -4,606 -4,459 Z"/>
  </g>
  <g id="bullet-char-template-61548" transform="scale(0.00048828125,-0.00048828125)">
   <path d="M 173,740 C 173,903 231,1043 346,1159 462,1274 601,1332 765,1332 928,1332 1067,1274 1183,1159 1299,1043 1357,903 1357,740 1357,577 1299,437 1183,322 1067,206 928,148 765,148 601,148 462,206 346,322 231,437 173,577 173,740 Z"/>
  </g>
 </defs>
 <g>
  <g id="id2" class="Master_Slide">
   <g id="bg-id2" class="Background"/>
   <g id="bo-id2" class="BackgroundObjects"/>
  </g>
 </g>
 <g class="SlideGroup">
  <g>
   <g id="container-id1">
    <g id="id1" class="Slide" clip-path="url(#presentation_clip_path)">
     <g class="Page">
      <g class="Graphic">
       <g id="id3">
        <rect class="BoundingBox" stroke="none" fill="none" x="0" y="0" width="13573" height="13573"/>
        <path fill="rgb(196,229,212)" stroke="rgb(196,229,212)" d="M 11757,2434 C 11722,2400 11682,2369 11640,2345 11554,2295 11456,2269 11357,2269 11258,2269 11161,2295 11075,2345 10989,2394 10918,2466 10868,2551 10819,2637 10793,2735 10793,2834 10793,2933 10819,3030 10868,3116 10893,3159 10923,3198 10958,3233 11267,3543 11534,3892 11753,4271 12195,5035 12427,5903 12427,6786 12427,7669 12195,8537 11753,9301 11534,9680 11267,10029 10958,10339 10923,10374 10893,10413 10868,10456 10819,10542 10793,10639 10793,10738 10793,10837 10819,10935 10868,11021 10918,11106 10989,11178 11075,11227 11161,11277 11258,11303 11357,11303 11456,11303 11554,11277 11640,11227 11682,11203 11722,11172 11757,11138 12135,10758 12463,10331 12731,9866 13272,8930 13556,7867 13556,6786 13556,5705 13272,4642 12731,3706 12463,3241 12135,2814 11757,2434 Z"/>
        <path fill="rgb(196,229,212)" stroke="rgb(196,229,212)" d="M 10111,4038 C 10025,3988 9927,3962 9828,3962 9729,3962 9631,3988 9545,4038 9459,4087 9388,4159 9338,4245 9289,4331 9262,4428 9262,4528 9262,4627 9289,4724 9338,4810 9363,4853 9393,4892 9427,4927 9589,5089 9729,5272 9844,5470 10075,5870 10197,6324 10197,6786 10197,7248 10075,7702 9844,8102 9729,8300 9589,8483 9427,8645 9393,8680 9363,8719 9338,8762 9289,8848 9262,8945 9262,9044 9262,9144 9289,9241 9338,9327 9388,9413 9459,9485 9545,9534 9631,9584 9729,9610 9828,9610 9927,9610 10025,9584 10111,9534 10154,9509 10194,9479 10229,9444 10460,9212 10660,8951 10824,8667 11154,8095 11328,7446 11328,6786 11328,6126 11154,5477 10824,4905 10660,4621 10460,4360 10229,4128 10194,4093 10154,4063 10111,4038 Z"/>
        <path fill="rgb(196,229,212)" stroke="rgb(196,229,212)" d="M 7813,126 C 7058,268 6333,537 5668,921 4834,1402 4112,2054 3550,2835 L 2835,2835 C 2341,2836 1855,2967 1426,3214 997,3462 640,3819 392,4248 145,4677 14,5163 13,5657 L 13,7915 C 14,8409 145,8895 392,9324 640,9753 997,10110 1426,10358 1855,10605 2341,10736 2835,10737 L 3550,10737 C 4113,11518 4834,12170 5668,12651 6333,13035 7058,13304 7813,13446 7846,13452 7879,13455 7912,13455 7913,13455 7914,13455 7915,13455 8014,13455 8112,13429 8198,13380 8283,13330 8355,13259 8404,13173 8454,13087 8480,12990 8480,12891 L 8480,683 C 8480,682 8480,682 8480,681 8480,582 8454,485 8404,399 8355,313 8283,242 8198,192 8112,143 8014,117 7915,117 7881,117 7847,120 7813,126 L 7813,126 Z M 7350,12168 C 6961,12044 6587,11878 6233,11674 5463,11229 4807,10609 4319,9865 4271,9790 4205,9728 4128,9684 4042,9634 3945,9608 3847,9608 L 2835,9608 C 2538,9608 2246,9530 1989,9381 1731,9233 1517,9019 1369,8761 1220,8504 1142,8212 1142,7915 L 1142,5657 C 1142,5360 1220,5068 1369,4811 1517,4553 1731,4339 1989,4191 2246,4042 2538,3964 2835,3964 L 3851,3964 C 3950,3964 4047,3938 4133,3888 4210,3844 4275,3782 4324,3708 4811,2962 5468,2342 6240,1896 6591,1693 6964,1528 7350,1404 L 7350,12168 Z"/>
       </g>
      </g>
     </g>
    </g>
   </g>
  </g>
 </g>
</svg>