<?xml version="1.0" encoding="UTF-8"?>
<!DOCTYPE svg PUBLIC "-//W3C//DTD SVG 1.1//EN" "http://www.w3.org/Graphics/SVG/1.1/DTD/svg11.dtd">
<svg version="1.2" width="135.73mm" height="135.73mm" viewBox="0 0 13573 13573" preserveAspectRatio="xMidYMid" fill-rule="evenodd" stroke-width="28.222" stroke-linejoin="round" xmlns="http://www.w3.org/2000/svg" xmlns:ooo="http://xml.openoffice.org/svg/export" xmlns:xlink="http://www.w3.org/1999/xlink" xmlns:presentation="http://sun.com/xmlns/staroffice/presentation" xmlns:smil="http://www.w3.org/2001/SMIL20/" xmlns:anim="urn:oasis:names:tc:opendocument:xmlns:animation:1.0" xml:space="preserve">
 <defs class="ClipPathGroup">
  <clipPath id="presentation_clip_path" clipPathUnits="userSpaceOnUse">
   <rect x="0" y="0" width="13573" height="13573"/>
  </clipPath>
  <clipPath id="presentation_clip_path_shrink" clipPathUnits="userSpaceOnUse">
   <rect x="13" y="13" width="13546" height="13546"/>
  </clipPath>
 </defs>
 <defs class="TextShapeIndex">
  <g ooo:slide="id1" ooo:id-list="id3"/>
 </defs>
 <defs class="EmbeddedBulletChars">
  <g id="bullet-char-template-57356" transform="scale(0.00048828125,-0.00048828125)">
   <path d="M 580,1141 L 1163,571 580,0 -4,571 580,1141 Z"/>
  </g>
  <g id="bullet-char-template-57354" transform="scale(0.00048828125,-0.00048828125)">
   <path d="M 8,1128 L 1137,1128 1137,0 8,0 8,1128 Z"/>
  </g>
  <g id="bullet-char-template-10146" transform="scale(0.00048828125,-0.00048828125)">
   <path d="M 174,0 L 602,739 174,1481 1456,739 174,0 Z M 1358,739 L 309,1346 659,739 1358,739 Z"/>
  </g>
  <g id="bullet-char-template-10132" transform="scale(0.00048828125,-0.00048828125)">
   <path d="M 2015,739 L 1276,0 717,0 1260,543 174,543 174,936 1260,936 717,1481 1274,1481 2015,739 Z"/>
  </g>
  <g id="bullet-char-template-10007" transform="scale(0.00048828125,-0.00048828125)">
   <path d="M 0,-2 C -7,14 -16,27 -25,37 L 356,567 C 262,823 215,952 215,954 215,979 228,992 255,992 264,992 276,990 289,987 310,991 331,999 354,1012 L 381,999 492,748 772,1049 836,1024 860,1049 C 881,1039 901,1025 922,1006 886,937 835,863 770,784 769,783 710,716 594,584 L 774,223 C 774,196 753,168 711,139 L 727,119 C 717,90 699,76 672,76 641,76 570,178 457,381 L 164,-76 C 142,-110 111,-127 72,-127 30,-127 9,-110 8,-76 1,-67 -2,-52 -2,-32 -2,-23 -1,-13 0,-2 Z"/>
  </g>
  <g id="bullet-char-template-10004" transform="scale(0.00048828125,-0.00048828125)">
   <path d="M 285,-33 C 182,-33 111,30 74,156 52,228 41,333 41,471 41,549 55,616 82,672 116,743 169,778 240,778 293,778 328,747 346,684 L 369,508 C 377,444 397,411 428,410 L 1163,1116 C 1174,1127 1196,1133 1229,1133 1271,1133 1292,1118 1292,1087 L 1292,965 C 1292,929 1282,901 1262,881 L 442,47 C 390,-6 338,-33 285,-33 Z"/>
  </g>
  <g id="bullet-char-template-9679" transform="scale(0.00048828125,-0.00048828125)">
   <path d="M 813,0 C 632,0 489,54 383,161 276,268 223,411 223,592 223,773 276,916 383,1023 489,1130 632,1184 813,1184 992,1184 1136,1130 1245,1023 1353,916 1407,772 1407,592 1407,412 1353,268 1245,161 1136,54 992,0 813,0 Z"/>
  </g>
  <g id="bullet-char-template-8226" transform="scale(0.00048828125,-0.00048828125)">
   <path d="M 346,457 C 273,457 209,483 155,535 101,586 74,649 74,723 74,796 101,859 155,911 209,963 273,989 346,989 419,989 480,963 531,910 582,859 608,796 608,723 608,648 583,586 532,535 482,483 420,457 346,457 Z"/>
  </g>
  <g id="bullet-char-template-8211" transform="scale(0.00048828125,-0.00048828125)">
   <path d="M -4,459 L 1135,459 1135,606 -4,606 -4,459 Z"/>
  </g>
  <g id="bullet-char-template-61548" transform="scale(0.00048828125,-0.00048828125)">
   <path d="M 173,740 C 173,903 231,1043 346,1159 462,1274 601,1332 765,1332 928,1332 1067,1274 1183,1159 1299,1043 1357,903 1357,740 1357,577 1299,437 1183,322 1067,206 928,148 765,148 601,148 462,206 346,322 231,437 173,577 173,740 Z"/>
  </g>
 </defs>
 <g>
  <g id="id2" class="Master_Slide">
   <g id="bg-id2" class="Background"/>
   <g id="bo-id2" class="BackgroundObjects"/>
  </g>
 </g>
 <g class="SlideGroup">
  <g>
   <g id="container-id1">
    <g id="id1" class="Slide" clip-path="url(#presentation_clip_path)">
     <g class="Page">
      <g class="Graphic">
       <g id="id3">
        <rect class="BoundingBox" stroke="none" fill="none" x="1" y="1" width="13573" height="13573"/>
        <path fill="rgb(82,140,131)" stroke="rgb(82,140,131)" d="M 11758,2435 C 11723,2401 11683,2370 11641,2346 11555,2296 11457,2270 11358,2270 11259,2270 11162,2296 11076,2346 10990,2395 10919,2467 10869,2552 10820,2638 10794,2736 10794,2835 10794,2934 10820,3031 10869,3117 10894,3160 10924,3199 10959,3234 11268,3544 11535,3893 11754,4272 12196,5036 12428,5904 12428,6787 12428,7670 12196,8538 11754,9302 11535,9681 11268,10030 10959,10340 10924,10375 10894,10414 10869,10457 10820,10543 10794,10640 10794,10739 10794,10838 10820,10936 10869,11022 10919,11107 10990,11179 11076,11228 11162,11278 11259,11304 11358,11304 11457,11304 11555,11278 11641,11228 11683,11204 11723,11173 11758,11139 12136,10759 12464,10332 12732,9867 13273,8931 13557,7868 13557,6787 13557,5706 13273,4643 12732,3707 12464,3242 12136,2815 11758,2435 Z"/>
        <path fill="rgb(82,140,131)" stroke="rgb(82,140,131)" d="M 10112,4039 C 10026,3989 9928,3963 9829,3963 9730,3963 9632,3989 9546,4039 9460,4088 9389,4160 9339,4246 9290,4332 9263,4429 9263,4529 9263,4628 9290,4725 9339,4811 9364,4854 9394,4893 9428,4928 9590,5090 9730,5273 9845,5471 10076,5871 10198,6325 10198,6787 10198,7249 10076,7703 9845,8103 9730,8301 9590,8484 9428,8646 9394,8681 9364,8720 9339,8763 9290,8849 9263,8946 9263,9045 9263,9145 9290,9242 9339,9328 9389,9414 9460,9486 9546,9535 9632,9585 9730,9611 9829,9611 9928,9611 10026,9585 10112,9535 10155,9510 10195,9480 10230,9445 10461,9213 10661,8952 10825,8668 11155,8096 11329,7447 11329,6787 11329,6127 11155,5478 10825,4906 10661,4622 10461,4361 10230,4129 10195,4094 10155,4064 10112,4039 Z"/>
        <path fill="rgb(82,140,131)" stroke="rgb(82,140,131)" d="M 7814,127 C 7059,269 6334,538 5669,922 4835,1403 4113,2055 3551,2836 L 2836,2836 C 2342,2837 1856,2968 1427,3215 998,3463 641,3820 393,4249 146,4678 15,5164 14,5658 L 14,7916 C 15,8410 146,8896 393,9325 641,9754 998,10111 1427,10359 1856,10606 2342,10737 2836,10738 L 3551,10738 C 4114,11519 4835,12171 5669,12652 6334,13036 7059,13305 7814,13447 7847,13453 7880,13456 7913,13456 7914,13456 7915,13456 7916,13456 8015,13456 8113,13430 8199,13381 8284,13331 8356,13260 8405,13174 8455,13088 8481,12991 8481,12892 L 8481,684 C 8481,683 8481,683 8481,682 8481,583 8455,486 8405,400 8356,314 8284,243 8199,193 8113,144 8015,118 7916,118 7882,118 7848,121 7814,127 L 7814,127 Z M 7351,12169 C 6962,12045 6588,11879 6234,11675 5464,11230 4808,10610 4320,9866 4272,9791 4206,9729 4129,9685 4043,9635 3946,9609 3848,9609 L 2836,9609 C 2539,9609 2247,9531 1990,9382 1732,9234 1518,9020 1370,8762 1221,8505 1143,8213 1143,7916 L 1143,5658 C 1143,5361 1221,5069 1370,4812 1518,4554 1732,4340 1990,4192 2247,4043 2539,3965 2836,3965 L 3852,3965 C 3951,3965 4048,3939 4134,3889 4211,3845 4276,3783 4325,3709 4812,2963 5469,2343 6241,1897 6592,1694 6965,1529 7351,1405 L 7351,12169 Z"/>
       </g>
      </g>
     </g>
    </g>
   </g>
  </g>
 </g>
</svg>